<svg preserveAspectRatio="none" width="100%" height="100%" overflow="visible" style="display: block;" viewBox="0 0 25.718 25.7177" fill="none" xmlns="http://www.w3.org/2000/svg">
<path id="Vector" d="M11.1708 14.5468L17.6323 8.08526M24.2421 4.1419L18.788 21.868C18.2992 23.4566 18.0546 24.2513 17.633 24.5147C17.2673 24.7431 16.8146 24.7813 16.4163 24.6161C15.9571 24.4255 15.5844 23.6814 14.8409 22.1943L11.3863 15.2851C11.2683 15.0491 11.2092 14.9316 11.1304 14.8294C11.0605 14.7387 10.9798 14.6569 10.889 14.587C10.7891 14.51 10.6736 14.4522 10.4481 14.3395L3.52299 10.8769C2.03591 10.1334 1.29231 9.76128 1.10176 9.30206C0.936511 8.9038 0.974197 8.45064 1.20267 8.08497C1.46612 7.66332 2.26073 7.41837 3.84981 6.92942L21.5759 1.47523C22.8252 1.09084 23.4501 0.898795 23.8721 1.05371C24.2396 1.18864 24.5294 1.47812 24.6643 1.84568C24.8191 2.26744 24.627 2.89202 24.243 4.14005L24.2421 4.1419Z" stroke="var(--stroke-0, #F3F3F3)" stroke-width="2" stroke-linecap="round" stroke-linejoin="round"/>
</svg>
